<svg xmlns="http://www.w3.org/2000/svg">
<symbol id="service" width="28" height="30" viewBox="0 0 30 30" >
<path d="M21.2596 11.1722C20.7925 12.9579 19.7026 13.3513 19.1211 13.4302C18.7629 14.1464 17.9755 15.61 17.1878 16.3454C16.873 16.6392 16.4638 16.8872 15.9718 17.0825C15.3436 17.3318 14.6801 17.4582 14.0001 17.4582C13.32 17.4582 12.6565 17.3318 12.0283 17.0825C11.5364 16.8874 11.1272 16.6394 10.8123 16.3454C10.0245 15.6101 9.23711 14.1464 8.87889 13.4302C8.29751 13.3513 7.20761 12.9581 6.74056 11.1722C6.49076 10.2172 6.55472 9.43874 6.93078 8.85832C7.09699 8.6018 7.29847 8.42708 7.48609 8.30877C7.48664 8.11813 7.4946 7.87946 7.5167 7.60798C7.17893 7.13859 6.7197 6.12583 7.28845 4.48653C7.8896 2.75349 9.24878 2.48585 9.90483 2.46266C10.1266 2.05036 10.5456 1.46499 11.3066 0.926842C12.1512 0.329123 13.2541 0 14.4121 0C15.837 0 17.2708 0.501507 18.5585 1.45031C20.6462 2.98859 20.4674 6.40088 20.4162 7.02042C20.4919 7.53977 20.5129 7.99022 20.5139 8.30864C20.7015 8.42694 20.903 8.60166 21.0692 8.85818C21.4453 9.43874 21.5092 10.2171 21.2596 11.1722ZM27.3652 24.4701V29.3138C27.3652 29.6927 27.0579 30 26.679 30H1.32101C0.942066 30 0.634766 29.6927 0.634766 29.3138V24.4701C0.634766 22.4858 1.82526 20.7273 3.66769 19.9903L9.66753 17.5904C9.84019 17.5215 10.0334 17.5252 10.2032 17.6015C10.3728 17.6775 10.5045 17.8193 10.5676 17.9942L12.076 22.1642L12.3746 21.3056L11.8995 20.144C11.813 19.9324 11.8374 19.6915 11.9649 19.5017C12.0924 19.3119 12.306 19.198 12.5347 19.198H15.4655C15.6941 19.198 15.9078 19.3119 16.0352 19.5017C16.1627 19.6915 16.1871 19.9324 16.1007 20.144L15.6255 21.3056L15.9242 22.1642L17.4325 17.9942C17.4957 17.8193 17.6273 17.6775 17.7969 17.6015C17.9667 17.5253 18.1601 17.5216 18.3326 17.5904L24.3324 19.9903C26.1749 20.7273 27.3652 22.4858 27.3652 24.4701ZM23.7122 24.9967C23.7122 24.6178 23.4049 24.3105 23.026 24.3105H18.4185C18.0396 24.3105 17.7323 24.6178 17.7323 24.9967V27.1364C17.7323 27.5154 18.0396 27.8227 18.4185 27.8227H23.026C23.4049 27.8227 23.7122 27.5154 23.7122 27.1364V24.9967Z"/>
</symbol>

<symbol id="support" width="30" height="30" viewBox="0 0 30 30" xmlns="http://www.w3.org/2000/svg">
<path d="M4.64455 10.3555H0.878906C0.393516 10.3555 0 10.749 0 11.2344V20.6485C0 21.1338 0.393516 21.5274 0.878906 21.5274H4.64455C5.12994 21.5274 5.52346 21.1338 5.52346 20.6485V11.2344C5.52346 10.749 5.12994 10.3555 4.64455 10.3555Z" />
<path d="M21.1192 20.5235C21.6046 20.5235 21.9981 20.13 21.9981 19.6446V17.6993H22.0605C22.5459 17.6993 22.9395 17.3058 22.9395 16.8204C22.9395 16.335 22.5459 15.9415 22.0605 15.9415H21.9981V11.1719C21.9981 10.8165 21.784 10.496 21.4556 10.3599C21.1273 10.2239 20.7492 10.299 20.4978 10.5504C20.4977 10.5504 17.7537 13.2935 16.4527 14.5936C15.8683 15.1811 15.5332 15.9928 15.5332 16.8204C15.5332 17.3058 15.9267 17.6993 16.4121 17.6993H20.2403V19.6446C20.2403 20.13 20.6337 20.5235 21.1192 20.5235ZM17.6019 15.9415C17.6317 15.9044 17.6635 15.8689 17.6971 15.8351C18.3554 15.1773 19.3849 14.1483 20.2402 13.2933V15.9415H17.6019Z" />
<path d="M13.996 19.6445C13.996 19.1592 13.6025 18.7656 13.1171 18.7656H9.5999C9.62973 18.7286 9.66148 18.693 9.69506 18.6593C10.9943 17.361 13.7385 14.6177 13.7385 14.6177C13.9034 14.4528 13.9961 14.2292 13.9961 13.9961V13.5254C13.9961 11.743 12.5461 10.293 10.7637 10.293C8.96439 10.293 7.53125 11.7504 7.53125 13.5244V13.5254C7.53125 14.0107 7.92477 14.4038 8.41016 14.4038C8.89555 14.4038 9.28906 14.0098 9.28906 13.5244C9.28906 12.7181 9.93828 12.0508 10.7637 12.0508C11.5768 12.0508 12.2383 12.7123 12.2383 13.5254V13.6319C11.5256 14.3444 9.5099 16.3593 8.45065 17.4179C7.86629 18.0054 7.53125 18.817 7.53125 19.6445C7.53125 20.1299 7.92477 20.5235 8.41016 20.5235H13.1172C13.6025 20.5235 13.996 20.1299 13.996 19.6445Z" />
<path d="M15.0002 1.75781C19.4114 1.75781 23.1284 4.78758 24.1795 8.87549C24.5338 8.69807 24.9331 8.59764 25.3557 8.59764H25.9213C24.7317 3.67102 20.2869 0 15.0002 0C9.71342 0 5.26861 3.67102 4.0791 8.59764H4.64471C5.06723 8.59764 5.46648 8.69807 5.82086 8.87549C6.87191 4.78758 10.5889 1.75781 15.0002 1.75781Z" />
<path d="M24.0077 22.9141C23.1291 24.9395 21.1103 26.36 18.7656 26.36H17.6175C17.2495 25.2669 16.2156 24.4772 15 24.4772C13.4772 24.4772 12.2383 25.7161 12.2383 27.2389C12.2383 28.7617 13.4772 30.0006 15 30.0006C16.2155 30.0006 17.2495 29.2108 17.6175 28.1178H18.7656C21.9561 28.1178 24.6852 26.1067 25.7532 23.2857H25.3554C24.8632 23.2857 24.4023 23.1498 24.0077 22.9141Z" />
<path d="M29.1211 10.3555H25.3555C24.8701 10.3555 24.4766 10.749 24.4766 11.2344V20.6485C24.4766 21.1338 24.8701 21.5274 25.3555 21.5274H29.1211C29.6065 21.5274 30 21.1338 30 20.6485V11.2344C30 10.749 29.6065 10.3555 29.1211 10.3555Z" />
</symbol>

<symbol id="case" width="30" height="26" viewBox="0 0 30 30" xmlns="http://www.w3.org/2000/svg">
<path fill-rule="evenodd" clip-rule="evenodd" d="M20.0008 4.25098H26.5625C28.4625 4.25098 30 5.78848 30 7.68848V10.551L15.3 15.451C15.2 15.4885 15.1 15.501 15 15.501C14.9 15.501 14.8 15.4885 14.7 15.451L0 10.551V7.68848C0 5.78848 1.5375 4.25098 3.4375 4.25098H10.0008V3.00098C10.0008 1.62223 11.122 0.500977 12.5008 0.500977H17.5008C18.8795 0.500977 20.0008 1.62223 20.0008 3.00098V4.25098ZM12.5008 4.25098V3.00098H17.5008V4.25098H12.5008ZM15.8875 17.2264C15.6625 17.3139 15.3375 17.3764 15 17.3764C14.6625 17.3764 14.3375 17.3139 14.0375 17.2014L0 12.5264V22.0639C0 23.9639 1.5375 25.5014 3.4375 25.5014H26.5625C28.4625 25.5014 30 23.9639 30 22.0639V12.5264L15.8875 17.2264Z"/>
</symbol>

<symbol id="earth" width="30" height="30" viewBox="0 0 30 30" xmlns="http://www.w3.org/2000/svg">
<path fill-rule="evenodd" clip-rule="evenodd" d="M15.8843 7.89812V0.144531C18.1268 1.00622 19.5217 4.56078 20.1539 6.88564C18.8267 7.44774 17.3893 7.79854 15.8843 7.89812ZM14.1165 19.4459C12.4372 19.5427 10.8098 19.9141 9.28696 20.5398C9.03987 19.0662 8.89291 17.4995 8.85355 15.8838H14.1165V19.4459ZM14.116 29.8553V21.2178C12.5342 21.3224 11.0274 21.7055 9.64423 22.3187C10.245 24.8602 11.6838 28.9207 14.116 29.8553ZM15.8843 29.8553V21.2178C17.4662 21.3224 18.9729 21.7055 20.3561 22.3187C19.7533 24.8684 18.3136 28.9219 15.8843 29.8553ZM20.563 8.63672C19.0837 9.22564 17.5085 9.57667 15.8843 9.67025V14.1163H21.1473C21.1004 12.1958 20.9013 10.3448 20.563 8.63672ZM15.8842 15.8838H21.1472C21.1078 17.4994 20.9609 19.0661 20.7137 20.5398C19.1909 19.9141 17.5636 19.5427 15.8842 19.4459V15.8838ZM8.85355 14.1163H14.1165V9.67025C12.4923 9.57667 10.9171 9.22564 9.43781 8.63672C9.09957 10.3448 8.90039 12.1958 8.85355 14.1163ZM19.2814 0.589844C21.2976 1.18583 23.1703 2.20374 24.7909 3.59997C23.9154 4.55883 22.9016 5.38947 21.7809 6.05918C21.1557 3.84192 20.3006 1.97169 19.2814 0.589844ZM9.84671 6.88564C11.174 7.44774 12.6114 7.79854 14.1163 7.89812V0.144531C11.8721 1.00681 10.4777 4.56543 9.84671 6.88564ZM19.2812 29.4105C20.4152 27.8734 21.346 25.7321 21.9831 23.1807C23.2107 23.9443 24.3048 24.903 25.2223 26.0128C23.5061 27.6088 21.4791 28.7608 19.2812 29.4105ZM4.77731 26.0128C6.49351 27.6088 8.52043 28.7608 10.7184 29.4105C9.58448 27.8735 8.65361 25.7322 8.01649 23.1807C6.78897 23.9444 5.69475 24.903 4.77731 26.0128ZM29.9998 14.116H22.9157C22.8648 11.8782 22.6214 9.76723 22.22 7.85487C23.6431 7.0729 24.9353 6.06271 26.0655 4.83496C28.4247 7.39806 29.7998 10.6457 29.9998 14.116ZM22.3763 21.3472C23.9042 22.2107 25.2858 23.3476 26.4569 24.7229C28.5768 22.2331 29.8112 19.1576 29.9999 15.8838H22.9158C22.8719 17.8146 22.6847 19.6511 22.3763 21.3472ZM0 15.8838H7.08418C7.12808 17.8146 7.31523 19.6511 7.62354 21.3472C6.09479 22.2112 4.71324 23.3485 3.54294 24.7229C1.42309 22.2331 0.188626 19.1576 0 15.8838ZM8.21924 6.05918C8.8444 3.84186 9.69949 1.97163 10.7187 0.589844C8.70256 1.18583 6.82979 2.20374 5.20923 3.59997C6.08471 4.55883 7.0985 5.38947 8.21924 6.05918ZM3.93428 4.83496C5.06527 6.06371 6.35778 7.07355 7.77982 7.85487C7.3784 9.76729 7.13503 11.8783 7.08418 14.1161H0C0.199999 10.6458 1.57513 7.39806 3.93428 4.83496Z"/>
</symbol>
</svg>