<svg xmlns="http://www.w3.org/2000/svg">
<symbol id="phone" width="30" height="30" viewBox="0 0 30 30" >
<path d="M15.9236 12.79C15.8921 12.698 15.8186 12.556 15.7661 12.4745C15.4353 11.975 13.6581 10.5841 12.7707 10.1293C12.2641 9.86901 11.8887 9.78226 11.6104 9.86372C11.3111 9.9479 11.1536 10.0872 10.6522 10.7103C10.4501 10.9601 10.2427 11.1941 10.1876 11.2309C10.0511 11.3255 9.78329 11.4018 9.59428 11.4018C9.15587 11.3991 8.36045 11.1152 7.74878 10.7419C7.27362 10.4527 6.66462 9.93475 6.19731 9.42205C5.646 8.81998 5.27065 8.2889 4.97397 7.68944C4.59071 6.91911 4.49358 6.44848 4.65369 6.10404C4.69308 6.01729 4.74559 5.9253 4.76919 5.89634C4.79283 5.87009 5.03961 5.66762 5.3126 5.44676C5.84816 5.02086 5.93478 4.92358 6.03453 4.63174C6.16054 4.26101 6.12643 3.88242 5.93217 3.50121C5.78252 3.21199 5.39137 2.581 5.10786 2.17349C4.73246 1.63717 3.7979 0.490857 3.61148 0.335693C3.27547 0.0622883 2.84498 0.0149345 2.36978 0.199013C1.86841 0.393575 0.928574 1.15076 0.526913 1.67923C0.164638 2.15772 0.0255486 2.49687 0.00452565 2.94382C-0.0138377 3.31189 0.0176528 3.46438 0.21192 3.93502C1.7319 7.62633 4.00001 10.5736 7.11612 12.9136C8.74372 14.1361 10.4317 15.0668 12.1827 15.7031C13.2039 16.0738 13.6475 16.0922 14.1699 15.7872C14.3904 15.6558 14.9365 15.0958 15.241 14.6882C15.745 14.0099 15.9314 13.6971 15.9839 13.4473C16.0207 13.2764 15.9918 12.9793 15.9236 12.79Z"/>
</symbol>

<symbol id="mail" width="25" height="21" viewBox="0 0 25 21" xmlns="http://www.w3.org/2000/svg">
<g filter="url(#filter0_d)">
<path d="M19.9032 0H5.09677C4.4919 0 4 0.491903 4 1.09677V1.99174L12.5 6.24174L21 1.99174V1.09677C21 0.491903 20.5081 0 19.9032 0Z"/>
<path d="M12.5 7.40306C12.4158 7.40306 12.3319 7.38387 12.2546 7.34521L4 3.21777V10.9676C4 11.5725 4.4919 12.0644 5.09677 12.0644H19.9032C20.5081 12.0644 21 11.5725 21 10.9676V3.21777L12.7454 7.34521C12.6681 7.38387 12.5842 7.40306 12.5 7.40306Z"/>
</g>
<defs>
<filter id="filter0_d" x="0" y="0" width="25" height="20.0644" filterUnits="userSpaceOnUse" color-interpolation-filters="sRGB">
<feFlood flood-opacity="0" result="BackgroundImageFix"/>
<feColorMatrix in="SourceAlpha" type="matrix" values="0 0 0 0 0 0 0 0 0 0 0 0 0 0 0 0 0 0 127 0" result="hardAlpha"/>
<feOffset dy="4"/>
<feGaussianBlur stdDeviation="2"/>
<feComposite in2="hardAlpha" operator="out"/>
<feColorMatrix type="matrix" values="0 0 0 0 0 0 0 0 0 0 0 0 0 0 0 0 0 0 0.25 0"/>
<feBlend mode="normal" in2="BackgroundImageFix" result="effect1_dropShadow"/>
<feBlend mode="normal" in="SourceGraphic" in2="effect1_dropShadow" result="shape"/>
</filter>
</defs>
</symbol>

<symbol id="pointer" width="12" height="15" viewBox="0 0 12 15" xmlns="http://www.w3.org/2000/svg">
<path d="M5.83333 0C2.61667 0 0 2.61667 0 5.83333C0 8.82667 4.68 14.1283 5.21333 14.7233C5.37167 14.8983 5.59667 15 5.83333 15C6.07 15 6.295 14.8983 6.45333 14.7233C6.98667 14.1283 11.6667 8.82667 11.6667 5.83333C11.6667 2.61667 9.05 0 5.83333 0ZM5.83333 8.33333C4.45333 8.33333 3.33333 7.21333 3.33333 5.83333C3.33333 4.45333 4.45333 3.33333 5.83333 3.33333C7.21333 3.33333 8.33333 4.45333 8.33333 5.83333C8.33333 7.21333 7.21333 8.33333 5.83333 8.33333Z" />
</symbol>
</svg>