<svg width="30" height="26" viewBox="0 0 30 26" fill="none" xmlns="http://www.w3.org/2000/svg">
<path fill-rule="evenodd" clip-rule="evenodd" d="M20.0008 4.25098H26.5625C28.4625 4.25098 30 5.78848 30 7.68848V10.551L15.3 15.451C15.2 15.4885 15.1 15.501 15 15.501C14.9 15.501 14.8 15.4885 14.7 15.451L0 10.551V7.68848C0 5.78848 1.5375 4.25098 3.4375 4.25098H10.0008V3.00098C10.0008 1.62223 11.122 0.500977 12.5008 0.500977H17.5008C18.8795 0.500977 20.0008 1.62223 20.0008 3.00098V4.25098ZM12.5008 4.25098V3.00098H17.5008V4.25098H12.5008ZM15.8875 17.2264C15.6625 17.3139 15.3375 17.3764 15 17.3764C14.6625 17.3764 14.3375 17.3139 14.0375 17.2014L0 12.5264V22.0639C0 23.9639 1.5375 25.5014 3.4375 25.5014H26.5625C28.4625 25.5014 30 23.9639 30 22.0639V12.5264L15.8875 17.2264Z" fill="url(#paint0_linear)"/>
<defs>
<linearGradient id="paint0_linear" x1="4.58904" y1="3.31351" x2="29.5042" y2="4.3374" gradientUnits="userSpaceOnUse">
<stop stop-color="#0BBDDE"/>
<stop offset="1" stop-color="#17C135"/>
</linearGradient>
</defs>
</svg>
