<svg width="30" height="30" viewBox="0 0 30 30" fill="none" xmlns="http://www.w3.org/2000/svg">
<path fill-rule="evenodd" clip-rule="evenodd" d="M15.8843 7.89812V0.144531C18.1268 1.00622 19.5217 4.56078 20.1539 6.88564C18.8267 7.44774 17.3893 7.79854 15.8843 7.89812ZM14.1165 19.4459C12.4372 19.5427 10.8098 19.9141 9.28696 20.5398C9.03987 19.0662 8.89291 17.4995 8.85355 15.8838H14.1165V19.4459ZM14.116 29.8553V21.2178C12.5342 21.3224 11.0274 21.7055 9.64423 22.3187C10.245 24.8602 11.6838 28.9207 14.116 29.8553ZM15.8843 29.8553V21.2178C17.4662 21.3224 18.9729 21.7055 20.3561 22.3187C19.7533 24.8684 18.3136 28.9219 15.8843 29.8553ZM20.563 8.63672C19.0837 9.22564 17.5085 9.57667 15.8843 9.67025V14.1163H21.1473C21.1004 12.1958 20.9013 10.3448 20.563 8.63672ZM15.8842 15.8838H21.1472C21.1078 17.4994 20.9609 19.0661 20.7137 20.5398C19.1909 19.9141 17.5636 19.5427 15.8842 19.4459V15.8838ZM8.85355 14.1163H14.1165V9.67025C12.4923 9.57667 10.9171 9.22564 9.43781 8.63672C9.09957 10.3448 8.90039 12.1958 8.85355 14.1163ZM19.2814 0.589844C21.2976 1.18583 23.1703 2.20374 24.7909 3.59997C23.9154 4.55883 22.9016 5.38947 21.7809 6.05918C21.1557 3.84192 20.3006 1.97169 19.2814 0.589844ZM9.84671 6.88564C11.174 7.44774 12.6114 7.79854 14.1163 7.89812V0.144531C11.8721 1.00681 10.4777 4.56543 9.84671 6.88564ZM19.2812 29.4105C20.4152 27.8734 21.346 25.7321 21.9831 23.1807C23.2107 23.9443 24.3048 24.903 25.2223 26.0128C23.5061 27.6088 21.4791 28.7608 19.2812 29.4105ZM4.77731 26.0128C6.49351 27.6088 8.52043 28.7608 10.7184 29.4105C9.58448 27.8735 8.65361 25.7322 8.01649 23.1807C6.78897 23.9444 5.69475 24.903 4.77731 26.0128ZM29.9998 14.116H22.9157C22.8648 11.8782 22.6214 9.76723 22.22 7.85487C23.6431 7.0729 24.9353 6.06271 26.0655 4.83496C28.4247 7.39806 29.7998 10.6457 29.9998 14.116ZM22.3763 21.3472C23.9042 22.2107 25.2858 23.3476 26.4569 24.7229C28.5768 22.2331 29.8112 19.1576 29.9999 15.8838H22.9158C22.8719 17.8146 22.6847 19.6511 22.3763 21.3472ZM0 15.8838H7.08418C7.12808 17.8146 7.31523 19.6511 7.62354 21.3472C6.09479 22.2112 4.71324 23.3485 3.54294 24.7229C1.42309 22.2331 0.188626 19.1576 0 15.8838ZM8.21924 6.05918C8.8444 3.84186 9.69949 1.97163 10.7187 0.589844C8.70256 1.18583 6.82979 2.20374 5.20923 3.59997C6.08471 4.55883 7.0985 5.38947 8.21924 6.05918ZM3.93428 4.83496C5.06527 6.06371 6.35778 7.07355 7.77982 7.85487C7.3784 9.76729 7.13503 11.8783 7.08418 14.1161H0C0.199999 10.6458 1.57513 7.39806 3.93428 4.83496Z" fill="url(#paint0_linear)"/>
<defs>
<linearGradient id="paint0_linear" x1="4.58902" y1="3.48698" x2="29.5163" y2="4.34896" gradientUnits="userSpaceOnUse">
<stop stop-color="#0BBDDE"/>
<stop offset="1" stop-color="#17C135"/>
</linearGradient>
</defs>
</svg>
