<svg width="30" height="30" viewBox="0 0 30 30" fill="none" xmlns="http://www.w3.org/2000/svg">
<path fill-rule="evenodd" clip-rule="evenodd" d="M15 30C23.2843 30 30 23.2843 30 15C30 6.71573 23.2843 0 15 0C6.71573 0 0 6.71573 0 15C0 23.2843 6.71573 30 15 30ZM21.2835 7.84256C22.7806 9.19011 23.6106 12.1694 23.05 16.8886C22.5594 21.0522 19.7525 21.7896 18.8103 22.0372L18.8102 22.0372C18.7178 22.0615 18.6434 22.081 18.5908 22.0987C18.3363 22.1832 16.0969 22.7626 13.1811 22.5097L12.8909 22.8567C11.4067 24.6322 11.1509 24.9382 10.623 24.7671C10.1328 24.6129 10.1618 23.8455 10.1618 23.8455L10.1657 21.9515H10.1618C5.9015 20.7112 5.961 16.1392 6.01112 13.6986C6.06123 11.2588 6.5185 9.28798 7.81672 7.94514C10.7076 5.19994 18.868 5.54054 21.2843 7.84178L21.2835 7.84256ZM11.0489 24.0757C11.6229 23.4783 13.4684 21.1771 13.4684 21.1771C15.9411 21.3423 17.9104 20.8357 18.1226 20.7652C18.172 20.7488 18.2433 20.7315 18.3321 20.7101C19.1346 20.5163 21.3644 19.9779 21.7768 16.5417C21.7764 16.5246 21.7824 16.4641 21.7921 16.3666C21.8902 15.3784 22.3653 10.5929 20.3369 8.79469C18.5141 7.08149 11.3598 6.54983 8.82366 8.9278C7.72432 10.0514 7.35161 11.72 7.31246 13.7574C7.31112 13.8273 7.30957 13.8994 7.30798 13.9736L7.30797 13.9736L7.30797 13.9737C7.26319 16.0581 7.18447 19.7226 10.6723 20.7221C10.6723 20.7221 10.6582 23.6138 10.6582 23.8667C10.6551 24.2519 10.861 24.2699 11.0489 24.0757ZM14.9949 9.46876C14.6935 9.46876 14.6935 9.93856 14.9949 9.94248C17.3338 9.96049 19.2599 11.5907 19.2811 14.581C19.2811 14.8965 19.743 14.8926 19.7391 14.5771H19.7384C19.7133 11.355 17.6102 9.48677 14.9949 9.46876ZM18.528 14.0965C18.5241 14.4121 18.0629 14.3972 18.0699 14.0856C18.106 12.5298 17.1656 11.3114 15.3803 11.1759C15.0797 11.154 15.111 10.6803 15.4124 10.7022C17.4709 10.8565 18.5664 12.3199 18.528 14.0965ZM17.5763 16.1057C17.1895 15.8818 16.7957 16.0212 16.6328 16.2412L16.2922 16.682C16.1191 16.906 15.7958 16.8762 15.7958 16.8762C13.4358 16.2522 12.8047 13.7826 12.8047 13.7826C12.8047 13.7826 12.7757 13.4482 12.9918 13.2689L13.4178 12.9166C13.6308 12.7475 13.7654 12.3403 13.5486 11.9402C13.1117 11.1508 12.7829 10.7514 12.5627 10.4839C12.4909 10.3966 12.4306 10.3233 12.3819 10.2552C12.1736 9.99443 11.8604 9.9357 11.5347 10.1119H11.5276C10.8503 10.5081 10.1088 11.2496 10.3461 12.013C10.4163 12.1526 10.4967 12.3451 10.594 12.5781L10.594 12.5781C11.0578 13.6889 11.9059 15.72 13.8657 17.3225C14.9799 18.2394 16.7432 19.179 17.4917 19.3959L17.4988 19.4069C18.2364 19.6527 18.9536 18.8823 19.3365 18.1846V18.1791C19.5064 17.8417 19.45 17.5222 19.2018 17.3131C18.7618 16.8841 18.0978 16.4103 17.5763 16.1057ZM16.8932 13.6936C16.854 12.8863 16.4892 12.4932 15.7367 12.4494C15.4321 12.4314 15.4603 11.9576 15.7618 11.9756C16.7515 12.0305 17.3011 12.6177 17.3512 13.6716C17.3653 13.9872 16.9073 14.0091 16.8932 13.6936Z" fill="white"/>
</svg>
