<svg width="30" height="30" viewBox="0 0 30 30" fill="none" xmlns="http://www.w3.org/2000/svg">
<path d="M17.8711 15C17.8711 16.5857 16.5857 17.8711 15 17.8711C13.4143 17.8711 12.1289 16.5857 12.1289 15C12.1289 13.4143 13.4143 12.1289 15 12.1289C16.5857 12.1289 17.8711 13.4143 17.8711 15Z" fill="white"/>
<path d="M21.715 9.92027C21.577 9.54628 21.3568 9.20776 21.0707 8.9299C20.7928 8.6438 20.4545 8.42361 20.0803 8.2856C19.7768 8.16772 19.3209 8.02742 18.4811 7.9892C17.5727 7.94777 17.3003 7.93884 15.0005 7.93884C12.7005 7.93884 12.4281 7.94754 11.5199 7.98897C10.6801 8.02742 10.224 8.16772 9.92069 8.2856C9.54646 8.42361 9.20795 8.6438 8.93031 8.9299C8.64421 9.20776 8.42403 9.54605 8.28578 9.92027C8.16791 10.2238 8.0276 10.6799 7.98938 11.5197C7.94795 12.4279 7.93903 12.7003 7.93903 15.0003C7.93903 17.3001 7.94795 17.5725 7.98938 18.4809C8.0276 19.3207 8.16791 19.7766 8.28578 20.0801C8.42403 20.4543 8.64398 20.7926 8.93008 21.0705C9.20795 21.3566 9.54623 21.5768 9.92046 21.7148C10.224 21.8329 10.6801 21.9732 11.5199 22.0114C12.4281 22.0528 12.7002 22.0615 15.0003 22.0615C17.3005 22.0615 17.5729 22.0528 18.4809 22.0114C19.3206 21.9732 19.7768 21.8329 20.0803 21.7148C20.8315 21.425 21.4252 20.8313 21.715 20.0801C21.8328 19.7766 21.9731 19.3207 22.0116 18.4809C22.053 17.5725 22.0617 17.3001 22.0617 15.0003C22.0617 12.7003 22.053 12.4279 22.0116 11.5197C21.9734 10.6799 21.8331 10.2238 21.715 9.92027ZM15.0005 19.423C12.5576 19.423 10.5773 17.4429 10.5773 15.0001C10.5773 12.5572 12.5576 10.5772 15.0005 10.5772C17.4431 10.5772 19.4234 12.5572 19.4234 15.0001C19.4234 17.4429 17.4431 19.423 15.0005 19.423ZM19.5983 11.4359C19.0274 11.4359 18.5646 10.9731 18.5646 10.4023C18.5646 9.83147 19.0274 9.36867 19.5983 9.36867C20.1691 9.36867 20.6319 9.83147 20.6319 10.4023C20.6317 10.9731 20.1691 11.4359 19.5983 11.4359Z" fill="white"/>
<path d="M15 0C6.717 0 0 6.717 0 15C0 23.283 6.717 30 15 30C23.283 30 30 23.283 30 15C30 6.717 23.283 0 15 0ZM23.5613 18.5511C23.5197 19.468 23.3739 20.094 23.161 20.6419C22.7135 21.7989 21.7989 22.7135 20.6419 23.161C20.0942 23.3739 19.468 23.5194 18.5513 23.5613C17.6328 23.6032 17.3394 23.6133 15.0002 23.6133C12.6608 23.6133 12.3676 23.6032 11.4489 23.5613C10.5322 23.5194 9.90601 23.3739 9.35829 23.161C8.78334 22.9447 8.26286 22.6057 7.83257 22.1674C7.39449 21.7374 7.05551 21.2167 6.83922 20.6419C6.62636 20.0942 6.48056 19.468 6.4389 18.5513C6.39656 17.6326 6.38672 17.3392 6.38672 15C6.38672 12.6608 6.39656 12.3674 6.43867 11.4489C6.48033 10.532 6.6259 9.90601 6.83876 9.35806C7.05505 8.78334 7.39426 8.26263 7.83257 7.83257C8.26263 7.39426 8.78334 7.05528 9.35806 6.83899C9.90601 6.62613 10.532 6.48056 11.4489 6.43867C12.3674 6.39679 12.6608 6.38672 15 6.38672C17.3392 6.38672 17.6326 6.39679 18.5511 6.4389C19.468 6.48056 20.094 6.62613 20.6419 6.83876C21.2167 7.05505 21.7374 7.39426 22.1677 7.83257C22.6057 8.26286 22.9449 8.78334 23.161 9.35806C23.3741 9.90601 23.5197 10.532 23.5616 11.4489C23.6034 12.3674 23.6133 12.6608 23.6133 15C23.6133 17.3392 23.6034 17.6326 23.5613 18.5511V18.5511Z" fill="white"/>
</svg>
