<svg width="25" height="21" viewBox="0 0 25 21" fill="none" xmlns="http://www.w3.org/2000/svg">
<g filter="url(#filter0_d)">
<path d="M19.9032 0H5.09677C4.4919 0 4 0.491903 4 1.09677V1.99174L12.5 6.24174L21 1.99174V1.09677C21 0.491903 20.5081 0 19.9032 0Z" fill="#DEDEDE"/>
<path d="M12.5 7.40306C12.4158 7.40306 12.3319 7.38387 12.2546 7.34521L4 3.21777V10.9676C4 11.5725 4.4919 12.0644 5.09677 12.0644H19.9032C20.5081 12.0644 21 11.5725 21 10.9676V3.21777L12.7454 7.34521C12.6681 7.38387 12.5842 7.40306 12.5 7.40306Z" fill="#DEDEDE"/>
</g>
<defs>
<filter id="filter0_d" x="0" y="0" width="25" height="20.0644" filterUnits="userSpaceOnUse" color-interpolation-filters="sRGB">
<feFlood flood-opacity="0" result="BackgroundImageFix"/>
<feColorMatrix in="SourceAlpha" type="matrix" values="0 0 0 0 0 0 0 0 0 0 0 0 0 0 0 0 0 0 127 0" result="hardAlpha"/>
<feOffset dy="4"/>
<feGaussianBlur stdDeviation="2"/>
<feComposite in2="hardAlpha" operator="out"/>
<feColorMatrix type="matrix" values="0 0 0 0 0 0 0 0 0 0 0 0 0 0 0 0 0 0 0.25 0"/>
<feBlend mode="normal" in2="BackgroundImageFix" result="effect1_dropShadow"/>
<feBlend mode="normal" in="SourceGraphic" in2="effect1_dropShadow" result="shape"/>
</filter>
</defs>
</svg>
