<svg width="16" height="16" viewBox="0 0 16 16" fill="none" xmlns="http://www.w3.org/2000/svg">
<path d="M15.9236 12.79C15.8921 12.698 15.8186 12.556 15.7661 12.4745C15.4353 11.975 13.6581 10.5841 12.7707 10.1293C12.2641 9.86901 11.8887 9.78226 11.6104 9.86372C11.3111 9.9479 11.1536 10.0872 10.6522 10.7103C10.4501 10.9601 10.2427 11.1941 10.1876 11.2309C10.0511 11.3255 9.78329 11.4018 9.59428 11.4018C9.15587 11.3991 8.36045 11.1152 7.74878 10.7419C7.27362 10.4527 6.66462 9.93475 6.19731 9.42205C5.646 8.81998 5.27065 8.2889 4.97397 7.68944C4.59071 6.91911 4.49358 6.44848 4.65369 6.10404C4.69308 6.01729 4.74559 5.9253 4.76919 5.89634C4.79283 5.87009 5.03961 5.66762 5.3126 5.44676C5.84816 5.02086 5.93478 4.92358 6.03453 4.63174C6.16054 4.26101 6.12643 3.88242 5.93217 3.50121C5.78252 3.21199 5.39137 2.581 5.10786 2.17349C4.73246 1.63717 3.7979 0.490857 3.61148 0.335693C3.27547 0.0622883 2.84498 0.0149345 2.36978 0.199013C1.86841 0.393575 0.928574 1.15076 0.526913 1.67923C0.164638 2.15772 0.0255486 2.49687 0.00452565 2.94382C-0.0138377 3.31189 0.0176528 3.46438 0.21192 3.93502C1.7319 7.62633 4.00001 10.5736 7.11612 12.9136C8.74372 14.1361 10.4317 15.0668 12.1827 15.7031C13.2039 16.0738 13.6475 16.0922 14.1699 15.7872C14.3904 15.6558 14.9365 15.0958 15.241 14.6882C15.745 14.0099 15.9314 13.6971 15.9839 13.4473C16.0207 13.2764 15.9918 12.9793 15.9236 12.79Z" fill="white"/>
</svg>
