<svg width="18" height="18" viewBox="0 0 18 18" fill="none" xmlns="http://www.w3.org/2000/svg">
<path d="M17.914 14.3887C17.8786 14.2852 17.7959 14.1255 17.7368 14.0338C17.3647 13.4718 15.3653 11.9071 14.3671 11.3954C13.7971 11.1026 13.3748 11.005 13.0617 11.0967C12.725 11.1914 12.5478 11.3481 11.9837 12.0491C11.7564 12.3301 11.523 12.5934 11.461 12.6347C11.3074 12.7412 11.0062 12.827 10.7936 12.827C10.3004 12.824 9.4055 12.5046 8.71737 12.0846C8.18283 11.7593 7.49769 11.1766 6.97197 10.5998C6.35175 9.92248 5.92948 9.32501 5.59571 8.65063C5.16455 7.784 5.05528 7.25454 5.23541 6.86705C5.27972 6.76945 5.33879 6.66596 5.36534 6.63338C5.39194 6.60385 5.66956 6.37607 5.97667 6.12761C6.57918 5.64847 6.67663 5.53903 6.78885 5.21071C6.93061 4.79364 6.89224 4.36772 6.67369 3.93886C6.50533 3.61349 6.06529 2.90363 5.74635 2.44518C5.32402 1.84181 4.27263 0.552216 4.06292 0.377655C3.6849 0.0700741 3.2006 0.0168018 2.666 0.22389C2.10196 0.442772 1.04465 1.29461 0.592777 1.88913C0.185217 2.42744 0.0287422 2.80897 0.00509136 3.3118C-0.0155674 3.72587 0.0198594 3.89743 0.23841 4.4269C1.94838 8.57962 4.50001 11.8953 8.00564 14.5278C9.83669 15.9031 11.7357 16.9502 13.7055 17.666C14.8544 18.083 15.3535 18.1037 15.9412 17.7607C16.1892 17.6127 16.8036 16.9827 17.1461 16.5243C17.7132 15.7611 17.9229 15.4092 17.9819 15.1282C18.0233 14.9359 17.9908 14.6017 17.914 14.3887Z" fill="url(#paint0_linear)"/>
<defs>
<linearGradient id="paint0_linear" x1="2.02499" y1="15.2619" x2="2.53154" y2="0.387969" gradientUnits="userSpaceOnUse">
<stop stop-color="#0BBDDE"/>
<stop offset="1" stop-color="#17C135"/>
</linearGradient>
</defs>
</svg>
