<svg width="28" height="30" viewBox="0 0 28 30" fill="none" xmlns="http://www.w3.org/2000/svg">
<path d="M21.2596 11.1722C20.7925 12.9579 19.7026 13.3513 19.1211 13.4302C18.7629 14.1464 17.9755 15.61 17.1878 16.3454C16.873 16.6392 16.4638 16.8872 15.9718 17.0825C15.3436 17.3318 14.6801 17.4582 14.0001 17.4582C13.32 17.4582 12.6565 17.3318 12.0283 17.0825C11.5364 16.8874 11.1272 16.6394 10.8123 16.3454C10.0245 15.6101 9.23711 14.1464 8.87889 13.4302C8.29751 13.3513 7.20761 12.9581 6.74056 11.1722C6.49076 10.2172 6.55472 9.43874 6.93078 8.85832C7.09699 8.6018 7.29847 8.42708 7.48609 8.30877C7.48664 8.11813 7.4946 7.87946 7.5167 7.60798C7.17893 7.13859 6.7197 6.12583 7.28845 4.48653C7.8896 2.75349 9.24878 2.48585 9.90483 2.46266C10.1266 2.05036 10.5456 1.46499 11.3066 0.926842C12.1512 0.329123 13.2541 0 14.4121 0C15.837 0 17.2708 0.501507 18.5585 1.45031C20.6462 2.98859 20.4674 6.40088 20.4162 7.02042C20.4919 7.53977 20.5129 7.99022 20.5139 8.30864C20.7015 8.42694 20.903 8.60166 21.0692 8.85818C21.4453 9.43874 21.5092 10.2171 21.2596 11.1722ZM27.3652 24.4701V29.3138C27.3652 29.6927 27.0579 30 26.679 30H1.32101C0.942066 30 0.634766 29.6927 0.634766 29.3138V24.4701C0.634766 22.4858 1.82526 20.7273 3.66769 19.9903L9.66753 17.5904C9.84019 17.5215 10.0334 17.5252 10.2032 17.6015C10.3728 17.6775 10.5045 17.8193 10.5676 17.9942L12.076 22.1642L12.3746 21.3056L11.8995 20.144C11.813 19.9324 11.8374 19.6915 11.9649 19.5017C12.0924 19.3119 12.306 19.198 12.5347 19.198H15.4655C15.6941 19.198 15.9078 19.3119 16.0352 19.5017C16.1627 19.6915 16.1871 19.9324 16.1007 20.144L15.6255 21.3056L15.9242 22.1642L17.4325 17.9942C17.4957 17.8193 17.6273 17.6775 17.7969 17.6015C17.9667 17.5253 18.1601 17.5216 18.3326 17.5904L24.3324 19.9903C26.1749 20.7273 27.3652 22.4858 27.3652 24.4701ZM23.7122 24.9967C23.7122 24.6178 23.4049 24.3105 23.026 24.3105H18.4185C18.0396 24.3105 17.7323 24.6178 17.7323 24.9967V27.1364C17.7323 27.5154 18.0396 27.8227 18.4185 27.8227H23.026C23.4049 27.8227 23.7122 27.5154 23.7122 27.1364V24.9967Z" fill="url(#paint0_linear)"/>
<defs>
<linearGradient id="paint0_linear" x1="4.72367" y1="3.37499" x2="26.9402" y2="4.05291" gradientUnits="userSpaceOnUse">
<stop stop-color="#0BBDDE"/>
<stop offset="1" stop-color="#17C135"/>
</linearGradient>
</defs>
</svg>
