<svg width="30" height="30" viewBox="0 0 30 30" fill="none" xmlns="http://www.w3.org/2000/svg">
<path d="M4.64455 10.3555H0.878906C0.393516 10.3555 0 10.749 0 11.2344V20.6485C0 21.1338 0.393516 21.5274 0.878906 21.5274H4.64455C5.12994 21.5274 5.52346 21.1338 5.52346 20.6485V11.2344C5.52346 10.749 5.12994 10.3555 4.64455 10.3555Z" fill="url(#paint0_linear)"/>
<path d="M21.1192 20.5235C21.6046 20.5235 21.9981 20.13 21.9981 19.6446V17.6993H22.0605C22.5459 17.6993 22.9395 17.3058 22.9395 16.8204C22.9395 16.335 22.5459 15.9415 22.0605 15.9415H21.9981V11.1719C21.9981 10.8165 21.784 10.496 21.4556 10.3599C21.1273 10.2239 20.7492 10.299 20.4978 10.5504C20.4977 10.5504 17.7537 13.2935 16.4527 14.5936C15.8683 15.1811 15.5332 15.9928 15.5332 16.8204C15.5332 17.3058 15.9267 17.6993 16.4121 17.6993H20.2403V19.6446C20.2403 20.13 20.6337 20.5235 21.1192 20.5235ZM17.6019 15.9415C17.6317 15.9044 17.6635 15.8689 17.6971 15.8351C18.3554 15.1773 19.3849 14.1483 20.2402 13.2933V15.9415H17.6019Z" fill="url(#paint1_linear)"/>
<path d="M13.996 19.6445C13.996 19.1592 13.6025 18.7656 13.1171 18.7656H9.5999C9.62973 18.7286 9.66148 18.693 9.69506 18.6593C10.9943 17.361 13.7385 14.6177 13.7385 14.6177C13.9034 14.4528 13.9961 14.2292 13.9961 13.9961V13.5254C13.9961 11.743 12.5461 10.293 10.7637 10.293C8.96439 10.293 7.53125 11.7504 7.53125 13.5244V13.5254C7.53125 14.0107 7.92477 14.4038 8.41016 14.4038C8.89555 14.4038 9.28906 14.0098 9.28906 13.5244C9.28906 12.7181 9.93828 12.0508 10.7637 12.0508C11.5768 12.0508 12.2383 12.7123 12.2383 13.5254V13.6319C11.5256 14.3444 9.5099 16.3593 8.45065 17.4179C7.86629 18.0054 7.53125 18.817 7.53125 19.6445C7.53125 20.1299 7.92477 20.5235 8.41016 20.5235H13.1172C13.6025 20.5235 13.996 20.1299 13.996 19.6445Z" fill="url(#paint2_linear)"/>
<path d="M15.0002 1.75781C19.4114 1.75781 23.1284 4.78758 24.1795 8.87549C24.5338 8.69807 24.9331 8.59764 25.3557 8.59764H25.9213C24.7317 3.67102 20.2869 0 15.0002 0C9.71342 0 5.26861 3.67102 4.0791 8.59764H4.64471C5.06723 8.59764 5.46648 8.69807 5.82086 8.87549C6.87191 4.78758 10.5889 1.75781 15.0002 1.75781Z" fill="url(#paint3_linear)"/>
<path d="M24.0077 22.9141C23.1291 24.9395 21.1103 26.36 18.7656 26.36H17.6175C17.2495 25.2669 16.2156 24.4772 15 24.4772C13.4772 24.4772 12.2383 25.7161 12.2383 27.2389C12.2383 28.7617 13.4772 30.0006 15 30.0006C16.2155 30.0006 17.2495 29.2108 17.6175 28.1178H18.7656C21.9561 28.1178 24.6852 26.1067 25.7532 23.2857H25.3554C24.8632 23.2857 24.4023 23.1498 24.0077 22.9141Z" fill="url(#paint4_linear)"/>
<path d="M29.1211 10.3555H25.3555C24.8701 10.3555 24.4766 10.749 24.4766 11.2344V20.6485C24.4766 21.1338 24.8701 21.5274 25.3555 21.5274H29.1211C29.6065 21.5274 30 21.1338 30 20.6485V11.2344C30 10.749 29.6065 10.3555 29.1211 10.3555Z" fill="url(#paint5_linear)"/>
<defs>
<linearGradient id="paint0_linear" x1="0.844912" y1="11.6123" x2="5.43859" y2="11.6901" gradientUnits="userSpaceOnUse">
<stop stop-color="#0BBDDE"/>
<stop offset="1" stop-color="#17C135"/>
</linearGradient>
<linearGradient id="paint1_linear" x1="16.6661" y1="11.4439" x2="22.8236" y2="11.5966" gradientUnits="userSpaceOnUse">
<stop stop-color="#0BBDDE"/>
<stop offset="1" stop-color="#17C135"/>
</linearGradient>
<linearGradient id="paint2_linear" x1="8.52016" y1="11.4439" x2="13.8958" y2="11.5602" gradientUnits="userSpaceOnUse">
<stop stop-color="#0BBDDE"/>
<stop offset="1" stop-color="#17C135"/>
</linearGradient>
<linearGradient id="paint3_linear" x1="7.42025" y1="0.998489" x2="25.4627" y2="2.5191" gradientUnits="userSpaceOnUse">
<stop stop-color="#0BBDDE"/>
<stop offset="1" stop-color="#17C135"/>
</linearGradient>
<linearGradient id="paint4_linear" x1="14.3056" y1="23.7113" x2="25.501" y2="24.4425" gradientUnits="userSpaceOnUse">
<stop stop-color="#0BBDDE"/>
<stop offset="1" stop-color="#17C135"/>
</linearGradient>
<linearGradient id="paint5_linear" x1="25.3215" y1="11.6123" x2="29.9152" y2="11.6901" gradientUnits="userSpaceOnUse">
<stop stop-color="#0BBDDE"/>
<stop offset="1" stop-color="#17C135"/>
</linearGradient>
</defs>
</svg>
