<svg width="15" height="19" viewBox="0 0 15 19" fill="none" xmlns="http://www.w3.org/2000/svg">
<path d="M7.38889 0C3.31444 0 0 3.31444 0 7.38889C0 11.1804 5.928 17.8959 6.60356 18.6496C6.80411 18.8712 7.08911 19 7.38889 19C7.68867 19 7.97367 18.8712 8.17422 18.6496C8.84978 17.8959 14.7778 11.1804 14.7778 7.38889C14.7778 3.31444 11.4633 0 7.38889 0ZM7.38889 10.5556C5.64089 10.5556 4.22222 9.13689 4.22222 7.38889C4.22222 5.64089 5.64089 4.22222 7.38889 4.22222C9.13689 4.22222 10.5556 5.64089 10.5556 7.38889C10.5556 9.13689 9.13689 10.5556 7.38889 10.5556Z" fill="url(#paint0_linear)"/>
<defs>
<linearGradient id="paint0_linear" x1="2.26053" y1="2.13749" x2="14.5455" y2="2.46472" gradientUnits="userSpaceOnUse">
<stop stop-color="#0BBDDE"/>
<stop offset="1" stop-color="#17C135"/>
</linearGradient>
</defs>
</svg>
