<svg width="30" height="30" viewBox="0 0 30 30" fill="none" xmlns="http://www.w3.org/2000/svg">
<g clip-path="url(#clip0)">
<path fill-rule="evenodd" clip-rule="evenodd" d="M14.9995 30C23.2838 30 29.9995 23.2843 29.9995 15C29.9995 6.71573 23.2838 0 14.9995 0C6.71524 0 -0.000488281 6.71573 -0.000488281 15C-0.000488281 23.2843 6.71524 30 14.9995 30ZM22.8395 11.23L22.8191 11.1042C23.057 12.3203 23.1811 13.5742 23.1811 14.8557C23.1811 14.9077 23.1811 14.9596 23.1804 15.0033C23.1811 15.0508 23.1811 15.0982 23.1811 15.1451C23.1811 16.4259 23.057 17.6798 22.8402 18.7695L22.8368 18.7829C22.6425 19.4298 22.1079 19.9393 21.4159 20.128C20.1266 20.4546 15.0069 20.4546 15.0069 20.4546C15.0069 20.4546 9.87217 20.4546 8.59787 20.128L8.58355 20.1248C7.90515 19.9393 7.37129 19.4298 7.17357 18.7695L7.1947 18.8965C6.69357 16.3881 6.69698 13.5729 7.17357 11.23L7.17698 11.2165C7.37129 10.5697 7.90583 10.0602 8.59719 9.87151C9.88581 9.5391 15.0062 9.54552 15.0062 9.54552C15.0062 9.54552 20.1395 9.54552 21.4152 9.87151L21.4295 9.87472C22.1079 10.0602 22.6418 10.5697 22.8395 11.23ZM13.3685 12.663V17.3429L17.6407 15.0065L13.3685 12.663Z" fill="white"/>
</g>
<defs>
<clipPath id="clip0">
<rect width="30" height="30" fill="white"/>
</clipPath>
</defs>
</svg>